<?xml version="1.0" encoding="UTF-8"?>
<svg width="200" height="164" viewBox="0 0 550 450" xmlns="http://www.w3.org/2000/svg">
  <style>
    path {
      fill: var(--logo-color, #171717);
    }
    .dark path {
      fill: var(--logo-color, #ededed);
    }
  </style>
  <g transform="translate(0.000000,450.000000) scale(0.100000,-0.100000)" stroke="none">
    <path d="M224 4357 c-3 -8 -4 -30 -2 -47 3 -30 8 -34 58 -49 75 -24 125 -57
192 -130 96 -103 64 -37 651 -1361 228 -514 510 -1151 627 -1415 117 -264 220
-490 228 -503 12 -19 22 -22 55 -20 l39 3 139 315 c218 494 351 788 372 822
16 26 20 29 32 17 8 -8 185 -401 395 -874 210 -473 395 -888 410 -923 l29 -63
43 3 43 3 171 385 c248 558 939 2115 1029 2320 213 483 295 604 469 690 l86
42 0 42 0 41 -505 1 c-356 0 -505 -3 -506 -10 0 -6 -2 -20 -4 -31 -7 -35 9
-44 89 -56 171 -23 277 -76 331 -163 29 -47 30 -54 30 -160 -1 -175 -23 -236
-290 -831 -87 -192 -177 -393 -200 -445 -23 -52 -105 -234 -182 -405 -77 -170
-180 -398 -228 -505 -49 -107 -94 -201 -101 -209 -24 -27 19 -118 -468 982
-395 891 -371 829 -353 880 32 91 453 1031 525 1170 110 215 186 299 340 376
l63 32 -3 40 -3 41 -505 -1 c-277 -1 -506 -4 -509 -6 -8 -9 -9 -52 -1 -64 4
-7 56 -22 116 -32 177 -32 272 -88 318 -189 26 -58 27 -194 1 -295 -28 -112
-175 -460 -369 -877 -31 -66 -49 -84 -63 -66 -33 45 -167 371 -184 447 -35
164 58 249 311 282 47 6 89 14 93 18 5 5 7 24 5 42 l-3 34 -673 0 -673 0 3
-39 c3 -40 4 -41 65 -62 125 -43 220 -143 311 -328 51 -103 423 -938 461
-1032 14 -36 7 -56 -142 -385 -93 -207 -127 -272 -142 -272 -16 0 30 -102
-605 1328 -412 929 -477 1084 -480 1155 -4 77 0 90 40 134 53 57 113 82 252
104 l113 18 0 45 0 44 -45 -1 c-166 -5 -1198 -4 -1239 2 -41 5 -52 3 -57 -9z"/>
  </g>
</svg>
